<svg xmlns="http://www.w3.org/2000/svg" width="24" height="24" viewBox="0 0 24 24">
    <g fill="none" fill-rule="evenodd">
        <path d="M0 0H24V24H0z"/>
        <path stroke="#767676" stroke-width="1.5" d="M12 3.75c-2.274 0-4.337.926-5.83 2.42C4.675 7.662 3.75 9.724 3.75 12s.926 4.337 2.42 5.83c1.493 1.494 3.556 2.42 5.83 2.42s4.337-.926 5.83-2.42c1.494-1.493 2.42-3.555 2.42-5.83s-.926-4.337-2.42-5.83C16.338 4.675 14.275 3.75 12 3.75z"/>
        <path fill="#767676" fill-rule="nonzero" d="M13.108 14.362v-.81c0-.238.05-.458.15-.66.101-.201.227-.395.379-.58.15-.185.315-.369.494-.55.179-.18.344-.372.495-.573.15-.202.277-.418.377-.65.101-.23.152-.488.152-.772 0-.334-.052-.66-.155-.979-.103-.318-.269-.602-.498-.852-.229-.25-.525-.45-.89-.6-.364-.152-.807-.227-1.329-.227-.426 0-.817.081-1.174.244-.357.162-.669.391-.934.686-.266.296-.477.65-.632 1.062-.156.412-.243.868-.261 1.367h1.531c.014-.312.06-.596.138-.852.078-.257.18-.477.309-.663.128-.185.28-.33.453-.433.174-.103.364-.154.57-.154.225 0 .418.036.58.11.163.073.298.174.406.302.108.128.188.277.24.446.053.17.08.35.08.543 0 .252-.056.476-.165.673-.11.197-.249.384-.416.56-.167.176-.348.348-.543.515-.194.167-.375.347-.542.54-.167.192-.306.405-.416.638-.11.234-.165.504-.165.81v.86h1.766zm0 2.638v-1.628h-1.766V17h1.766z"/>
    </g>
</svg>
